<svg width="147" height="12" viewBox="0 0 147 12" fill="none" xmlns="http://www.w3.org/2000/svg">
<g clip-path="url(#clip0_390_7116)">
<mask id="mask0_390_7116" style="mask-type:luminance" maskUnits="userSpaceOnUse" x="0" y="0" width="84" height="12">
<path d="M83.9206 0.342773H0V11.8724H83.9206V0.342773Z" fill="white"/>
</mask>
<g mask="url(#mask0_390_7116)">
<path d="M32.2307 1.96875V5.12099H28.6514V1.96875H26.6797V10.2426H28.6514V6.91592H32.2307V10.2426H34.2025V1.96875H34.1019H32.2307Z" fill="#222222"/>
<path d="M41.4355 1.96875L39.3719 5.24519L37.3115 1.96875H34.9844L38.389 7.37724V10.2426H40.3577V7.37724L43.7624 1.96875H43.5819H41.4355Z" fill="#222222"/>
<path d="M50.1059 1.96875V8.03074C50.1067 8.08584 50.0963 8.14054 50.0753 8.19152C50.0545 8.24251 50.0235 8.28874 49.9842 8.32743C49.9449 8.36611 49.8982 8.39644 49.8468 8.41661C49.7954 8.43678 49.7406 8.44634 49.6854 8.44473H46.5264V1.96875H44.5547V10.2486H50.3811C50.6079 10.2668 50.8359 10.2357 51.0495 10.1573C51.263 10.079 51.457 9.95523 51.618 9.79468C51.779 9.63416 51.9032 9.44063 51.982 9.22746C52.0609 9.0143 52.0924 8.7866 52.0746 8.56007V1.96875H50.1059Z" fill="#222222"/>
<path d="M59.7279 1.96974H53.8984V10.2495H55.8702V3.76173H59.0352C59.0898 3.76094 59.1442 3.77109 59.1951 3.79158C59.2459 3.81207 59.292 3.84248 59.331 3.88104C59.3699 3.91961 59.4007 3.96553 59.4215 4.01614C59.4423 4.06674 59.4529 4.12099 59.4525 4.17572V10.2436H61.4212V3.66415C61.4328 3.4383 61.3984 3.21249 61.3207 3.00014C61.2428 2.78778 61.123 2.59323 60.9684 2.4281C60.8032 2.2722 60.6081 2.15123 60.3949 2.07247C60.1817 1.99371 59.9549 1.95877 59.7279 1.96974Z" fill="#222222"/>
<path d="M69.0793 1.96944H63.25V10.2493H69.0793C69.3055 10.2654 69.5323 10.2324 69.7446 10.1527C69.9568 10.073 70.1493 9.94841 70.3086 9.78746C70.4681 9.62652 70.5908 9.43303 70.6683 9.22026C70.746 9.00751 70.7766 8.78051 70.7581 8.55485V3.66385C70.7734 3.43613 70.7418 3.2077 70.6654 2.99258C70.5891 2.77747 70.4694 2.58024 70.3139 2.413C70.1485 2.26007 69.954 2.14197 69.7417 2.06576C69.5297 1.98956 69.3044 1.9568 69.0793 1.96944ZM68.801 4.18724V8.03145C68.8018 8.08605 68.7918 8.14028 68.7716 8.19101C68.7511 8.24172 68.7211 8.28793 68.6827 8.32696C68.6445 8.36599 68.599 8.39709 68.5485 8.41842C68.4983 8.43978 68.4442 8.45097 68.3896 8.45135H65.2187V3.76144H68.3688C68.4259 3.75851 68.4829 3.76749 68.5362 3.78779C68.5895 3.80807 68.6381 3.83924 68.6788 3.87929C68.7194 3.91934 68.7513 3.9674 68.7723 4.02042C68.7935 4.07344 68.8031 4.13025 68.801 4.18724Z" fill="#222222"/>
<path d="M74.2115 1.9699C73.9848 1.95847 73.7582 1.99321 73.5456 2.07201C73.3328 2.1508 73.1383 2.272 72.9738 2.42824C72.8179 2.59256 72.6969 2.7869 72.6187 2.99941C72.5402 3.21191 72.506 3.43814 72.5179 3.66431V10.2438H74.4838V7.68592H78.0661V10.2438H80.0349V1.9699H74.2115ZM78.0601 3.76188V5.89393H74.478V4.1877C74.477 4.13132 74.4876 4.07533 74.509 4.02311C74.5303 3.97088 74.5619 3.9235 74.602 3.88375C74.642 3.84402 74.6897 3.81274 74.7422 3.7918C74.7946 3.77085 74.8507 3.76069 74.9072 3.76188H78.0601Z" fill="#222222"/>
<path d="M83.9249 1.96875H81.9531V10.2426H83.9249V1.96875Z" fill="#222222"/>
<path d="M11.2709 11.8753C17.4881 11.8753 22.5389 9.29383 22.5389 6.10906C22.5389 2.92429 17.4941 0.342773 11.2709 0.342773C5.04778 0.342773 0 2.92429 0 6.10611C0 9.28791 5.03298 11.8753 11.2709 11.8753ZM13.3907 9.04543C13.2042 9.47717 12.8815 10.3968 12.1384 10.7783C11.9025 10.8872 11.6463 10.9457 11.3864 10.9498C11.3331 10.9498 11.2916 10.9498 11.2739 10.9498C9.37081 10.9642 7.47583 10.7012 5.64878 10.1691L5.58365 10.1455C5.43561 10.0952 5.35865 10.0272 5.35865 9.94143C5.36056 9.90622 5.36967 9.87178 5.38547 9.84024C5.40125 9.80869 5.42337 9.78074 5.45043 9.75809L5.55405 9.66937C5.92116 9.35594 7.04322 8.53977 9.17779 7.73546C10.0423 7.38462 10.9332 7.10282 11.8423 6.8927C12.39 6.76553 14.5068 6.44026 13.3907 9.04248V9.04543ZM19.0868 3.23183C19.1035 3.19458 19.1297 3.16252 19.1632 3.13907C19.1965 3.11563 19.2356 3.1017 19.2764 3.09877C19.3607 3.09722 19.4433 3.12432 19.5102 3.17564C20.8337 3.98884 21.6182 5.00312 21.6182 6.10315C21.6182 8.09325 19.0602 9.79949 15.4009 10.5388C15.1671 10.5861 15.0101 10.5831 14.9568 10.5388C14.9036 10.4944 14.9095 10.4382 14.9568 10.3613C14.9847 10.3128 15.0174 10.2672 15.0545 10.2253C17.047 7.88035 18.5628 4.42058 18.9952 3.42404C19.0277 3.3442 19.0602 3.27619 19.0868 3.23183ZM9.17779 3.15791C9.36431 2.72323 9.68702 1.7947 10.4301 1.42506C10.6659 1.31568 10.9221 1.25724 11.1821 1.25355C11.2384 1.25355 11.2798 1.25355 11.2946 1.25355C13.1976 1.2397 15.0925 1.50268 16.9197 2.03422L16.9789 2.05788C17.1299 2.10815 17.2069 2.17616 17.2069 2.26191C17.2053 2.29676 17.1963 2.33088 17.1805 2.36199C17.1646 2.3931 17.1424 2.42047 17.1151 2.4423L17.0115 2.53397C16.6592 2.84741 15.5312 3.6606 13.4085 4.48267C12.5441 4.83456 11.6531 5.11736 10.7439 5.32839C10.1844 5.43781 8.06165 5.76013 9.17779 3.15791ZM7.13795 1.66163C7.3748 1.61727 7.52875 1.61727 7.585 1.66163C7.60335 1.68758 7.6132 1.71857 7.6132 1.75034C7.6132 1.78211 7.60335 1.8131 7.585 1.83905C7.5547 1.8867 7.52106 1.93216 7.48433 1.97508C5.49188 4.33482 3.97606 7.79755 3.55269 8.79705C3.52013 8.86506 3.48756 8.93306 3.46091 8.97742C3.44481 9.01523 3.41861 9.04791 3.38521 9.07189C3.35181 9.09588 3.31246 9.11024 3.27145 9.11345C3.18726 9.11345 3.10529 9.0865 3.03755 9.03657C1.71418 8.22337 0.929622 7.20613 0.929622 6.10611C0.920741 4.11895 3.47868 2.41272 7.13795 1.66163Z" fill="#222222"/>
</g>
</g>
<rect x="91.9199" y="1.98975" width="0.54903" height="8.23545" fill="#726D69"/>
<path d="M101.066 2.71304H104.738V7.62356H101.488C101.353 7.62356 101.248 7.59721 101.172 7.5445C101.101 7.48594 101.066 7.39516 101.066 7.27218V2.71304ZM102.164 3.67054V6.66605H103.658V3.67054H102.164ZM105.722 2.01028H106.846V4.58413H107.883V5.55921H106.846V9.60007H105.722V2.01028ZM113.297 2.01028H114.422V9.60007H113.297V2.01028ZM110.381 3.57392C110.199 3.57392 110.05 3.62369 109.933 3.72325C109.816 3.82281 109.722 3.94872 109.652 4.10098C109.581 4.25325 109.532 4.42601 109.502 4.61927C109.473 4.80667 109.458 4.98822 109.458 5.16391C109.458 5.3396 109.473 5.52407 109.502 5.71733C109.532 5.90473 109.581 6.07456 109.652 6.22683C109.722 6.37909 109.816 6.505 109.933 6.60456C110.05 6.70412 110.199 6.7539 110.381 6.7539C110.562 6.7539 110.712 6.70412 110.829 6.60456C110.946 6.505 111.04 6.37909 111.11 6.22683C111.18 6.07456 111.227 5.90473 111.25 5.71733C111.28 5.52407 111.294 5.3396 111.294 5.16391C111.294 4.98822 111.28 4.80667 111.25 4.61927C111.227 4.42601 111.18 4.25325 111.11 4.10098C111.04 3.94872 110.946 3.82281 110.829 3.72325C110.712 3.62369 110.562 3.57392 110.381 3.57392ZM110.381 2.61641C110.756 2.61641 111.072 2.68961 111.329 2.83602C111.593 2.97657 111.804 3.1669 111.962 3.40701C112.12 3.64126 112.234 3.91358 112.305 4.22397C112.375 4.5285 112.41 4.84181 112.41 5.16391C112.41 5.486 112.375 5.80225 112.305 6.11263C112.234 6.41716 112.12 6.68948 111.962 6.92959C111.804 7.16384 111.593 7.35417 111.329 7.50058C111.072 7.64113 110.756 7.71141 110.381 7.71141C110 7.71141 109.678 7.64113 109.414 7.50058C109.157 7.35417 108.946 7.16384 108.782 6.92959C108.624 6.68948 108.51 6.41716 108.439 6.11263C108.369 5.80225 108.334 5.486 108.334 5.16391C108.334 4.84181 108.369 4.5285 108.439 4.22397C108.51 3.91358 108.624 3.64126 108.782 3.40701C108.946 3.1669 109.157 2.97657 109.414 2.83602C109.678 2.68961 110 2.61641 110.381 2.61641ZM117.507 2.70425H121.056V3.39823C121.056 3.98971 120.979 4.51971 120.827 4.98822C120.675 5.45087 120.449 5.86959 120.151 6.2444C119.858 6.61335 119.495 6.9413 119.062 7.22826C118.634 7.51522 118.142 7.7729 117.586 8.00129L117.094 7.06135C117.627 6.85638 118.098 6.61335 118.508 6.33224C118.918 6.05114 119.246 5.7144 119.492 5.32203C119.375 5.38645 119.234 5.43915 119.07 5.48015C118.906 5.51529 118.719 5.53285 118.508 5.53285H117.313V4.61927H119.791C119.884 4.34402 119.931 4.03071 119.931 3.67933H117.507V2.70425ZM122.075 2.01028H123.199V4.61927H124.227V5.59435H123.199V9.60007H122.075V2.01028ZM124.748 2.71304H128.42V7.62356H125.17C125.035 7.62356 124.93 7.59721 124.854 7.5445C124.783 7.48594 124.748 7.39516 124.748 7.27218V2.71304ZM125.846 3.67054V6.66605H127.34V3.67054H125.846ZM129.404 2.01028H130.528V4.58413H131.565V5.55921H130.528V9.60007H129.404V2.01028ZM131.788 7.70262H138.745V8.6777H131.788V7.70262ZM134.695 2.46707H135.837V3.00292C135.837 3.38944 135.902 3.72911 136.031 4.02192C136.165 4.30888 136.341 4.55778 136.558 4.7686C136.78 4.97943 137.038 5.15805 137.331 5.30446C137.623 5.44501 137.931 5.56799 138.253 5.67341L137.831 6.58699C137.556 6.51672 137.284 6.42009 137.014 6.2971C136.751 6.17412 136.502 6.03064 136.268 5.86666C136.039 5.70269 135.837 5.52407 135.662 5.33081C135.486 5.1317 135.354 4.92673 135.266 4.7159C135.184 4.92673 135.055 5.1317 134.88 5.33081C134.704 5.52993 134.502 5.7144 134.274 5.88423C134.045 6.04821 133.796 6.19462 133.527 6.32346C133.258 6.4523 132.985 6.55185 132.71 6.62213L132.288 5.70854C132.605 5.60899 132.909 5.486 133.202 5.3396C133.495 5.18733 133.749 5.00579 133.966 4.79496C134.189 4.57827 134.364 4.32352 134.493 4.03071C134.628 3.73789 134.695 3.39823 134.695 3.01171V2.46707ZM139.495 2.69547H142.903V3.65298H140.619V4.70711H142.552V5.63827H140.619V6.74511H141.489C141.858 6.74511 142.212 6.72462 142.552 6.68362C142.891 6.64263 143.181 6.57821 143.421 6.49036L143.623 7.24583C143.336 7.42737 142.991 7.55036 142.587 7.61478C142.189 7.6792 141.749 7.71141 141.269 7.71141H139.916C139.782 7.71141 139.676 7.68505 139.6 7.63234C139.53 7.57378 139.495 7.48301 139.495 7.36003V2.69547ZM144.344 2.01028H145.468V9.60007H144.344V5.40987H143.096V4.45236H144.344V2.01028Z" fill="#222222"/>
<defs>
<clipPath id="clip0_390_7116">
<rect width="83.9206" height="11.5296" fill="white" transform="translate(0 0.342773)"/>
</clipPath>
</defs>
</svg>
