<svg width="147" height="12" viewBox="0 0 147 12" fill="none" xmlns="http://www.w3.org/2000/svg">
<g clip-path="url(#clip0_1296_4809)">
<mask id="mask0_1296_4809" style="mask-type:luminance" maskUnits="userSpaceOnUse" x="0" y="0" width="84" height="12">
<path d="M83.9206 0H0V11.5296H83.9206V0Z" fill="white"/>
</mask>
<g mask="url(#mask0_1296_4809)">
<path d="M32.2307 1.62598V4.77821H28.6514V1.62598H26.6797V9.89986H28.6514V6.57315H32.2307V9.89986H34.2025V1.62598H34.1019H32.2307Z" fill="white"/>
<path d="M41.4355 1.62598L39.3719 4.90241L37.3115 1.62598H34.9844L38.389 7.03447V9.89986H40.3577V7.03447L43.7624 1.62598H43.5819H41.4355Z" fill="white"/>
<path d="M50.1059 1.62598V7.68797C50.1067 7.74307 50.0963 7.79777 50.0753 7.84874C50.0545 7.89974 50.0235 7.94597 49.9842 7.98466C49.9449 8.02333 49.8982 8.05367 49.8468 8.07384C49.7954 8.094 49.7406 8.10357 49.6854 8.10196H46.5264V1.62598H44.5547V9.90578H50.3811C50.6079 9.92402 50.8359 9.89289 51.0495 9.81454C51.263 9.73618 51.457 9.61245 51.618 9.45191C51.779 9.29138 51.9032 9.09785 51.982 8.88469C52.0609 8.67152 52.0924 8.44382 52.0746 8.21729V1.62598H50.1059Z" fill="white"/>
<path d="M59.7279 1.62697H53.8984V9.90678H55.8702V3.41896H59.0352C59.0898 3.41817 59.1442 3.42832 59.1951 3.44881C59.2459 3.46929 59.292 3.49971 59.331 3.53826C59.3699 3.57684 59.4007 3.62275 59.4215 3.67337C59.4423 3.72397 59.4529 3.77821 59.4525 3.83295V9.90086H61.4212V3.32137C61.4328 3.09553 61.3984 2.86972 61.3207 2.65736C61.2428 2.44501 61.123 2.25046 60.9684 2.08532C60.8032 1.92943 60.6081 1.80846 60.3949 1.7297C60.1817 1.65094 59.9549 1.616 59.7279 1.62697Z" fill="white"/>
<path d="M69.0793 1.62667H63.25V9.90648H69.0793C69.3055 9.92258 69.5323 9.88966 69.7446 9.80995C69.9568 9.73023 70.1493 9.60563 70.3086 9.44469C70.4681 9.28375 70.5908 9.09026 70.6683 8.87749C70.746 8.66474 70.7766 8.43774 70.7581 8.21208V3.32108C70.7734 3.09336 70.7418 2.86492 70.6654 2.64981C70.5891 2.4347 70.4694 2.23746 70.3139 2.07023C70.1485 1.9173 69.954 1.7992 69.7417 1.72299C69.5297 1.64678 69.3044 1.61403 69.0793 1.62667ZM68.801 3.84447V7.68867C68.8018 7.74328 68.7918 7.7975 68.7716 7.84823C68.7511 7.89895 68.7211 7.94516 68.6827 7.98419C68.6445 8.02322 68.599 8.05431 68.5485 8.07565C68.4983 8.09701 68.4442 8.1082 68.3896 8.10858H65.2187V3.41866H68.3688C68.4259 3.41574 68.4829 3.42471 68.5362 3.44501C68.5895 3.46529 68.6381 3.49646 68.6788 3.53651C68.7194 3.57656 68.7513 3.62463 68.7723 3.67765C68.7935 3.73066 68.8031 3.78748 68.801 3.84447Z" fill="white"/>
<path d="M74.2115 1.62713C73.9848 1.6157 73.7582 1.65044 73.5456 1.72923C73.3328 1.80803 73.1383 1.92923 72.9738 2.08547C72.8179 2.24979 72.6969 2.44413 72.6187 2.65664C72.5402 2.86914 72.506 3.09537 72.5179 3.32154V9.90102H74.4838V7.34315H78.0661V9.90102H80.0349V1.62713H74.2115ZM78.0601 3.4191V5.55116H74.478V3.84492C74.477 3.78854 74.4876 3.73256 74.509 3.68033C74.5303 3.62811 74.5619 3.58073 74.602 3.54098C74.642 3.50125 74.6897 3.46997 74.7422 3.44902C74.7946 3.42808 74.8507 3.41791 74.9072 3.4191H78.0601Z" fill="white"/>
<path d="M83.9249 1.62598H81.9531V9.89986H83.9249V1.62598Z" fill="white"/>
<path d="M11.2709 11.5326C17.4881 11.5326 22.5389 8.95105 22.5389 5.76629C22.5389 2.58152 17.4941 0 11.2709 0C5.04778 0 0 2.58152 0 5.76334C0 8.94514 5.03298 11.5326 11.2709 11.5326ZM13.3907 8.70266C13.2042 9.13439 12.8815 10.054 12.1384 10.4355C11.9025 10.5445 11.6463 10.6029 11.3864 10.607C11.3331 10.607 11.2916 10.607 11.2739 10.607C9.37081 10.6215 7.47583 10.3585 5.64878 9.82636L5.58365 9.8027C5.43561 9.75242 5.35865 9.68441 5.35865 9.59866C5.36056 9.56345 5.36967 9.52901 5.38547 9.49746C5.40125 9.46592 5.42337 9.43796 5.45043 9.41532L5.55405 9.3266C5.92116 9.01316 7.04322 8.197 9.17779 7.39268C10.0423 7.04184 10.9332 6.76005 11.8423 6.54992C12.39 6.42276 14.5068 6.09749 13.3907 8.69971V8.70266ZM19.0868 2.88906C19.1035 2.85181 19.1297 2.81975 19.1632 2.79629C19.1965 2.77286 19.2356 2.75893 19.2764 2.756C19.3607 2.75445 19.4433 2.78155 19.5102 2.83287C20.8337 3.64606 21.6182 4.66035 21.6182 5.76037C21.6182 7.75048 19.0602 9.45671 15.4009 10.196C15.1671 10.2433 15.0101 10.2403 14.9568 10.196C14.9036 10.1516 14.9095 10.0955 14.9568 10.0186C14.9847 9.96999 15.0174 9.92442 15.0545 9.88253C17.047 7.53758 18.5628 4.0778 18.9952 3.08126C19.0277 3.00143 19.0602 2.93342 19.0868 2.88906ZM9.17779 2.81514C9.36431 2.38045 9.68702 1.45192 10.4301 1.08229C10.6659 0.972906 10.9221 0.914462 11.1821 0.910778C11.2384 0.910778 11.2798 0.910778 11.2946 0.910778C13.1976 0.896927 15.0925 1.15991 16.9197 1.69145L16.9789 1.7151C17.1299 1.76537 17.2069 1.83338 17.2069 1.91913C17.2053 1.95399 17.1963 1.9881 17.1805 2.01922C17.1646 2.05033 17.1424 2.0777 17.1151 2.09953L17.0115 2.1912C16.6592 2.50463 15.5312 3.31783 13.4085 4.13989C12.5441 4.49179 11.6531 4.77459 10.7439 4.98562C10.1844 5.09504 8.06165 5.41736 9.17779 2.81514ZM7.13795 1.31886C7.3748 1.2745 7.52875 1.2745 7.585 1.31886C7.60335 1.3448 7.6132 1.3758 7.6132 1.40757C7.6132 1.43934 7.60335 1.47033 7.585 1.49628C7.5547 1.54393 7.52106 1.58938 7.48433 1.6323C5.49188 3.99205 3.97606 7.45477 3.55269 8.45428C3.52013 8.52228 3.48756 8.59029 3.46091 8.63465C3.44481 8.67245 3.41861 8.70513 3.38521 8.72912C3.35181 8.7531 3.31246 8.76747 3.27145 8.77068C3.18726 8.77068 3.10529 8.74373 3.03755 8.69379C1.71418 7.88059 0.929622 6.86336 0.929622 5.76334C0.920741 3.77618 3.47868 2.06995 7.13795 1.31886Z" fill="white"/>
</g>
</g>
<rect x="91.9199" y="1.64697" width="0.54903" height="8.23545" fill="#DDDDDD"/>
<path d="M101.066 2.37026H104.738V7.28079H101.488C101.353 7.28079 101.248 7.25443 101.172 7.20173C101.101 7.14316 101.066 7.05239 101.066 6.92941V2.37026ZM102.164 3.32777V6.32328H103.658V3.32777H102.164ZM105.722 1.6675H106.846V4.24136H107.883V5.21643H106.846V9.25729H105.722V1.6675ZM113.297 1.6675H114.422V9.25729H113.297V1.6675ZM110.381 3.23114C110.199 3.23114 110.05 3.28092 109.933 3.38048C109.816 3.48004 109.722 3.60595 109.652 3.75821C109.581 3.91048 109.532 4.08324 109.502 4.2765C109.473 4.4639 109.458 4.64544 109.458 4.82113C109.458 4.99682 109.473 5.1813 109.502 5.37455C109.532 5.56196 109.581 5.73179 109.652 5.88405C109.722 6.03632 109.816 6.16223 109.933 6.26179C110.05 6.36134 110.199 6.41112 110.381 6.41112C110.562 6.41112 110.712 6.36134 110.829 6.26179C110.946 6.16223 111.04 6.03632 111.11 5.88405C111.18 5.73179 111.227 5.56196 111.25 5.37455C111.28 5.1813 111.294 4.99682 111.294 4.82113C111.294 4.64544 111.28 4.4639 111.25 4.2765C111.227 4.08324 111.18 3.91048 111.11 3.75821C111.04 3.60595 110.946 3.48004 110.829 3.38048C110.712 3.28092 110.562 3.23114 110.381 3.23114ZM110.381 2.27363C110.756 2.27363 111.072 2.34684 111.329 2.49325C111.593 2.6338 111.804 2.82413 111.962 3.06424C112.12 3.29849 112.234 3.57081 112.305 3.88119C112.375 4.18572 112.41 4.49904 112.41 4.82113C112.41 5.14323 112.375 5.45947 112.305 5.76986C112.234 6.07439 112.12 6.3467 111.962 6.58681C111.804 6.82107 111.593 7.0114 111.329 7.1578C111.072 7.29836 110.756 7.36863 110.381 7.36863C110 7.36863 109.678 7.29836 109.414 7.1578C109.157 7.0114 108.946 6.82107 108.782 6.58681C108.624 6.3467 108.51 6.07439 108.439 5.76986C108.369 5.45947 108.334 5.14323 108.334 4.82113C108.334 4.49904 108.369 4.18572 108.439 3.88119C108.51 3.57081 108.624 3.29849 108.782 3.06424C108.946 2.82413 109.157 2.6338 109.414 2.49325C109.678 2.34684 110 2.27363 110.381 2.27363ZM117.507 2.36148H121.056V3.05545C121.056 3.64694 120.979 4.17694 120.827 4.64544C120.675 5.10809 120.449 5.52682 120.151 5.90162C119.858 6.27057 119.495 6.59853 119.062 6.88549C118.634 7.17244 118.142 7.43012 117.586 7.65852L117.094 6.71858C117.627 6.51361 118.098 6.27057 118.508 5.98947C118.918 5.70837 119.246 5.37163 119.492 4.97925C119.375 5.04367 119.234 5.09638 119.07 5.13737C118.906 5.17251 118.719 5.19008 118.508 5.19008H117.313V4.2765H119.791C119.884 4.00125 119.931 3.68793 119.931 3.33656H117.507V2.36148ZM122.075 1.6675H123.199V4.2765H124.227V5.25157H123.199V9.25729H122.075V1.6675ZM124.748 2.37026H128.42V7.28079H125.17C125.035 7.28079 124.93 7.25443 124.854 7.20173C124.783 7.14316 124.748 7.05239 124.748 6.92941V2.37026ZM125.846 3.32777V6.32328H127.34V3.32777H125.846ZM129.404 1.6675H130.528V4.24136H131.565V5.21643H130.528V9.25729H129.404V1.6675ZM131.788 7.35985H138.745V8.33492H131.788V7.35985ZM134.695 2.1243H135.837V2.66015C135.837 3.04667 135.902 3.38633 136.031 3.67915C136.165 3.96611 136.341 4.215 136.558 4.42583C136.78 4.63666 137.038 4.81528 137.331 4.96168C137.623 5.10224 137.931 5.22522 138.253 5.33063L137.831 6.24422C137.556 6.17394 137.284 6.07731 137.014 5.95433C136.751 5.83135 136.502 5.68787 136.268 5.52389C136.039 5.35991 135.837 5.1813 135.662 4.98804C135.486 4.78892 135.354 4.58395 135.266 4.37312C135.184 4.58395 135.055 4.78892 134.88 4.98804C134.704 5.18715 134.502 5.37163 134.274 5.54146C134.045 5.70544 133.796 5.85185 133.527 5.98068C133.258 6.10952 132.985 6.20908 132.71 6.27936L132.288 5.36577C132.605 5.26621 132.909 5.14323 133.202 4.99682C133.495 4.84456 133.749 4.66301 133.966 4.45218C134.189 4.2355 134.364 3.98075 134.493 3.68794C134.628 3.39512 134.695 3.05545 134.695 2.66894V2.1243ZM139.495 2.35269H142.903V3.3102H140.619V4.36434H142.552V5.29549H140.619V6.40234H141.489C141.858 6.40234 142.212 6.38184 142.552 6.34085C142.891 6.29985 143.181 6.23543 143.421 6.14759L143.623 6.90305C143.336 7.0846 142.991 7.20758 142.587 7.272C142.189 7.33642 141.749 7.36863 141.269 7.36863H139.916C139.782 7.36863 139.676 7.34228 139.6 7.28957C139.53 7.23101 139.495 7.14024 139.495 7.01725V2.35269ZM144.344 1.6675H145.468V9.25729H144.344V5.0671H143.096V4.10959H144.344V1.6675Z" fill="white"/>
<defs>
<clipPath id="clip0_1296_4809">
<rect width="83.9206" height="11.5296" fill="white"/>
</clipPath>
</defs>
</svg>
